<?xml version="1.0" encoding="utf-8"?>
<!-- Generator: Adobe Illustrator 18.1.1, SVG Export Plug-In . SVG Version: 6.00 Build 0)  -->
<!DOCTYPE svg PUBLIC "-//W3C//DTD SVG 1.1//EN" "http://www.w3.org/Graphics/SVG/1.1/DTD/svg11.dtd">
<svg version="1.1" id="List" xmlns="http://www.w3.org/2000/svg" xmlns:xlink="http://www.w3.org/1999/xlink" x="0px" y="0px"
	 viewBox="0 0 841.9 595.3" enable-background="new 0 0 841.9 595.3" xml:space="preserve">
<path fill="#FFFFFF" d="M642.8,248H355c-27.3,0-29.8,22.2-29.8,49.7s2.3,49.7,29.8,49.7h287.6c27.3,0,29.8-22.2,29.8-49.7
	S670.2,248,642.8,248z M742,496H355c-27.3,0-29.8,22.2-29.8,49.7c0,27.5,2.3,49.7,29.8,49.7h387c27.3,0,29.8-22.2,29.8-49.7
	C771.8,518.1,769.3,496,742,496z M355,99.2h387c27.3,0,29.8-22.2,29.8-49.7S769.3,0,742,0H355c-27.3,0-29.8,22.2-29.8,49.7
	S327.7,99.2,355,99.2z M196.4,248h-89.3c-27.3,0-29.8,22.2-29.8,49.7s2.3,49.7,29.8,49.7h89.3c27.3,0,29.8-22.2,29.8-49.7
	S223.7,248,196.4,248z M196.4,496h-89.3c-27.3,0-29.8,22.2-29.8,49.7c0,27.5,2.3,49.7,29.8,49.7h89.3c27.3,0,29.8-22.2,29.8-49.7
	C226.2,518.1,223.7,496,196.4,496z M196.4,0h-89.3C79.7,0,77.2,22.2,77.2,49.7s2.3,49.7,29.8,49.7h89.3c27.3,0,29.8-22.2,29.8-49.7
	S223.7,0,196.4,0z"/>
</svg>
